<?xml version="1.0" encoding="utf-8"?>
<svg xmlns="http://www.w3.org/2000/svg"
	xmlns:xlink="http://www.w3.org/1999/xlink"
	width="26px" height="32px" viewBox="0 0 26 32">
<path fillRule="evenodd" d="M 22.81 32C 22.81 32 3.19 32 3.19 32 1.43 32-0 30.58-0 28.84-0 28.84-0 19.31-0 19.31-0 19.31-0 7.44-0 7.44-0 7.3 0.03 7.17 0.1 7.05 0.1 7.05 3.64 0.44 3.64 0.44 3.79 0.17 4.07-0 4.38-0 4.38-0 21.62-0 21.62-0 21.93-0 22.21 0.17 22.36 0.44 22.36 0.44 25.9 7.05 25.9 7.05 25.97 7.17 26 7.3 26 7.44 26 7.44 26 19.31 26 19.31 26 19.31 26 28.84 26 28.84 26 30.58 24.57 32 22.81 32 22.81 32 22.81 32 22.81 32ZM 1.66 26.08C 1.66 26.08 1.66 28.84 1.66 28.84 1.66 29.67 2.35 30.35 3.19 30.35 3.19 30.35 22.81 30.35 22.81 30.35 23.65 30.35 24.34 29.67 24.34 28.84 24.34 28.84 24.34 26.08 24.34 26.08 24.34 26.08 1.66 26.08 1.66 26.08 1.66 26.08 1.66 26.08 1.66 26.08ZM 1.66 20.13C 1.66 20.13 1.66 24.43 1.66 24.43 1.66 24.43 24.34 24.43 24.34 24.43 24.34 24.43 24.34 20.13 24.34 20.13 24.34 20.13 1.66 20.13 1.66 20.13 1.66 20.13 1.66 20.13 1.66 20.13ZM 1.66 14.21C 1.66 14.21 1.66 18.48 1.66 18.48 1.66 18.48 24.34 18.48 24.34 18.48 24.34 18.48 24.34 14.21 24.34 14.21 24.34 14.21 1.66 14.21 1.66 14.21 1.66 14.21 1.66 14.21 1.66 14.21ZM 1.66 8.41C 1.66 8.41 1.66 12.56 1.66 12.56 1.66 12.56 24.34 12.56 24.34 12.56 24.34 12.56 24.34 8.41 24.34 8.41 24.34 8.41 1.66 8.41 1.66 8.41 1.66 8.41 1.66 8.41 1.66 8.41ZM 4.88 1.65C 4.88 1.65 2.14 6.76 2.14 6.76 2.14 6.76 23.86 6.76 23.86 6.76 23.86 6.76 21.12 1.65 21.12 1.65 21.12 1.65 4.88 1.65 4.88 1.65 4.88 1.65 4.88 1.65 4.88 1.65ZM 4.06 29.97C 3.11 29.97 2.34 29.2 2.34 28.26 2.34 27.32 3.11 26.56 4.06 26.56 5.01 26.56 5.78 27.32 5.78 28.26 5.78 29.2 5.01 29.97 4.06 29.97 4.06 29.97 4.06 29.97 4.06 29.97ZM 4.06 27.38C 3.57 27.38 3.17 27.78 3.17 28.26 3.17 28.75 3.57 29.14 4.06 29.14 4.55 29.14 4.95 28.75 4.95 28.26 4.95 27.78 4.55 27.38 4.06 27.38 4.06 27.38 4.06 27.38 4.06 27.38ZM 21.66 28.97C 21.27 28.97 20.95 28.65 20.95 28.26 20.95 27.88 21.27 27.56 21.66 27.56 22.05 27.56 22.37 27.88 22.37 28.26 22.37 28.65 22.05 28.97 21.66 28.97 21.66 28.97 21.66 28.97 21.66 28.97ZM 21.66 28.11C 21.58 28.11 21.51 28.18 21.51 28.26 21.51 28.35 21.58 28.42 21.66 28.42 21.75 28.42 21.82 28.35 21.82 28.26 21.82 28.18 21.75 28.11 21.66 28.11 21.66 28.11 21.66 28.11 21.66 28.11ZM 18.95 28.97C 18.55 28.97 18.23 28.65 18.23 28.26 18.23 27.88 18.55 27.56 18.95 27.56 19.34 27.56 19.66 27.88 19.66 28.26 19.66 28.65 19.34 28.97 18.95 28.97 18.95 28.97 18.95 28.97 18.95 28.97ZM 18.95 28.11C 18.86 28.11 18.79 28.18 18.79 28.26 18.79 28.35 18.86 28.42 18.95 28.42 19.03 28.42 19.1 28.35 19.1 28.26 19.1 28.18 19.03 28.11 18.95 28.11 18.95 28.11 18.95 28.11 18.95 28.11ZM 16.2 28.97C 15.8 28.97 15.48 28.65 15.48 28.26 15.48 27.88 15.8 27.56 16.2 27.56 16.59 27.56 16.91 27.88 16.91 28.26 16.91 28.65 16.59 28.97 16.2 28.97 16.2 28.97 16.2 28.97 16.2 28.97ZM 16.2 28.11C 16.11 28.11 16.04 28.18 16.04 28.26 16.04 28.35 16.11 28.42 16.2 28.42 16.28 28.42 16.35 28.35 16.35 28.26 16.35 28.18 16.28 28.11 16.2 28.11 16.2 28.11 16.2 28.11 16.2 28.11ZM 4.06 23.87C 3.11 23.87 2.34 23.1 2.34 22.16 2.34 21.22 3.11 20.46 4.06 20.46 5.01 20.46 5.78 21.22 5.78 22.16 5.78 23.1 5.01 23.87 4.06 23.87 4.06 23.87 4.06 23.87 4.06 23.87ZM 4.06 21.28C 3.57 21.28 3.17 21.68 3.17 22.16 3.17 22.65 3.57 23.04 4.06 23.04 4.55 23.04 4.95 22.65 4.95 22.16 4.95 21.68 4.55 21.28 4.06 21.28 4.06 21.28 4.06 21.28 4.06 21.28ZM 21.66 22.87C 21.27 22.87 20.95 22.55 20.95 22.16 20.95 21.77 21.27 21.46 21.66 21.46 22.05 21.46 22.37 21.77 22.37 22.16 22.37 22.55 22.05 22.87 21.66 22.87 21.66 22.87 21.66 22.87 21.66 22.87ZM 21.66 22.01C 21.58 22.01 21.51 22.08 21.51 22.16 21.51 22.25 21.58 22.32 21.66 22.32 21.75 22.32 21.82 22.25 21.82 22.16 21.82 22.08 21.75 22.01 21.66 22.01 21.66 22.01 21.66 22.01 21.66 22.01ZM 18.95 22.87C 18.55 22.87 18.23 22.55 18.23 22.16 18.23 21.77 18.55 21.46 18.95 21.46 19.34 21.46 19.66 21.77 19.66 22.16 19.66 22.55 19.34 22.87 18.95 22.87 18.95 22.87 18.95 22.87 18.95 22.87ZM 18.95 22.01C 18.86 22.01 18.79 22.08 18.79 22.16 18.79 22.25 18.86 22.32 18.95 22.32 19.03 22.32 19.1 22.25 19.1 22.16 19.1 22.08 19.03 22.01 18.95 22.01 18.95 22.01 18.95 22.01 18.95 22.01ZM 16.2 22.87C 15.8 22.87 15.48 22.55 15.48 22.16 15.48 21.77 15.8 21.46 16.2 21.46 16.59 21.46 16.91 21.77 16.91 22.16 16.91 22.55 16.59 22.87 16.2 22.87 16.2 22.87 16.2 22.87 16.2 22.87ZM 16.2 22.01C 16.11 22.01 16.04 22.08 16.04 22.16 16.04 22.25 16.11 22.32 16.2 22.32 16.28 22.32 16.35 22.25 16.35 22.16 16.35 22.08 16.28 22.01 16.2 22.01 16.2 22.01 16.2 22.01 16.2 22.01ZM 4.06 18.11C 3.11 18.11 2.34 17.34 2.34 16.4 2.34 15.46 3.11 14.7 4.06 14.7 5.01 14.7 5.78 15.46 5.78 16.4 5.78 17.34 5.01 18.11 4.06 18.11 4.06 18.11 4.06 18.11 4.06 18.11ZM 4.06 15.52C 3.57 15.52 3.17 15.92 3.17 16.4 3.17 16.89 3.57 17.28 4.06 17.28 4.55 17.28 4.95 16.89 4.95 16.4 4.95 15.92 4.55 15.52 4.06 15.52 4.06 15.52 4.06 15.52 4.06 15.52ZM 21.66 17.11C 21.27 17.11 20.95 16.79 20.95 16.4 20.95 16.01 21.27 15.7 21.66 15.7 22.05 15.7 22.37 16.01 22.37 16.4 22.37 16.79 22.05 17.11 21.66 17.11 21.66 17.11 21.66 17.11 21.66 17.11ZM 21.66 16.25C 21.58 16.25 21.51 16.32 21.51 16.4 21.51 16.49 21.58 16.56 21.66 16.56 21.75 16.56 21.82 16.49 21.82 16.4 21.82 16.32 21.75 16.25 21.66 16.25 21.66 16.25 21.66 16.25 21.66 16.25ZM 18.95 17.11C 18.55 17.11 18.23 16.79 18.23 16.4 18.23 16.01 18.55 15.7 18.95 15.7 19.34 15.7 19.66 16.01 19.66 16.4 19.66 16.79 19.34 17.11 18.95 17.11 18.95 17.11 18.95 17.11 18.95 17.11ZM 18.95 16.25C 18.86 16.25 18.79 16.32 18.79 16.4 18.79 16.49 18.86 16.56 18.95 16.56 19.03 16.56 19.1 16.49 19.1 16.4 19.1 16.32 19.03 16.25 18.95 16.25 18.95 16.25 18.95 16.25 18.95 16.25ZM 16.2 17.11C 15.8 17.11 15.48 16.79 15.48 16.4 15.48 16.01 15.8 15.7 16.2 15.7 16.59 15.7 16.91 16.01 16.91 16.4 16.91 16.79 16.59 17.11 16.2 17.11 16.2 17.11 16.2 17.11 16.2 17.11ZM 16.2 16.25C 16.11 16.25 16.04 16.32 16.04 16.4 16.04 16.49 16.11 16.56 16.2 16.56 16.28 16.56 16.35 16.49 16.35 16.4 16.35 16.32 16.28 16.25 16.2 16.25 16.2 16.25 16.2 16.25 16.2 16.25ZM 4.06 12.24C 3.11 12.24 2.34 11.47 2.34 10.53 2.34 9.59 3.11 8.83 4.06 8.83 5.01 8.83 5.78 9.59 5.78 10.53 5.78 11.47 5.01 12.24 4.06 12.24 4.06 12.24 4.06 12.24 4.06 12.24ZM 4.06 9.65C 3.57 9.65 3.17 10.05 3.17 10.53 3.17 11.02 3.57 11.41 4.06 11.41 4.55 11.41 4.95 11.02 4.95 10.53 4.95 10.05 4.55 9.65 4.06 9.65 4.06 9.65 4.06 9.65 4.06 9.65ZM 21.66 11.24C 21.27 11.24 20.95 10.92 20.95 10.53 20.95 10.14 21.27 9.83 21.66 9.83 22.05 9.83 22.37 10.14 22.37 10.53 22.37 10.92 22.05 11.24 21.66 11.24 21.66 11.24 21.66 11.24 21.66 11.24ZM 21.66 10.38C 21.58 10.38 21.51 10.45 21.51 10.53 21.51 10.62 21.58 10.69 21.66 10.69 21.75 10.69 21.82 10.62 21.82 10.53 21.82 10.45 21.75 10.38 21.66 10.38 21.66 10.38 21.66 10.38 21.66 10.38ZM 18.95 11.24C 18.55 11.24 18.23 10.92 18.23 10.53 18.23 10.14 18.55 9.83 18.95 9.83 19.34 9.83 19.66 10.14 19.66 10.53 19.66 10.92 19.34 11.24 18.95 11.24 18.95 11.24 18.95 11.24 18.95 11.24ZM 18.95 10.38C 18.86 10.38 18.79 10.45 18.79 10.53 18.79 10.62 18.86 10.69 18.95 10.69 19.03 10.69 19.1 10.62 19.1 10.53 19.1 10.45 19.03 10.38 18.95 10.38 18.95 10.38 18.95 10.38 18.95 10.38ZM 16.2 11.24C 15.8 11.24 15.48 10.92 15.48 10.53 15.48 10.14 15.8 9.83 16.2 9.83 16.59 9.83 16.91 10.14 16.91 10.53 16.91 10.92 16.59 11.24 16.2 11.24 16.2 11.24 16.2 11.24 16.2 11.24ZM 16.2 10.38C 16.11 10.38 16.04 10.45 16.04 10.53 16.04 10.62 16.11 10.69 16.2 10.69 16.28 10.69 16.35 10.62 16.35 10.53 16.35 10.45 16.28 10.38 16.2 10.38 16.2 10.38 16.2 10.38 16.2 10.38Z" fill="rgb(31,33,65)"/></svg>